<?xml version="1.0" encoding="UTF-8"?>
<svg version="1.1" xmlns="http://www.w3.org/2000/svg" width="841" height="841">
<path d="M0 0 C9.47407801 7.46879153 16.13290954 16.22585345 21.39453125 26.9921875 C21.73619324 27.68365875 22.07785522 28.37513 22.42987061 29.08755493 C26.34028545 37.03417777 30.12526606 45.04042043 33.89453125 53.0546875 C34.64287547 54.64259141 35.3912483 56.23048182 36.13964844 57.81835938 C41.87548061 69.99898856 47.53274097 82.21464144 53.15576172 94.44775391 C55.90999649 100.42685524 58.68367845 106.39693702 61.45703125 112.3671875 C62.00351318 113.5437793 62.54999512 114.72037109 63.11303711 115.93261719 C66.94776882 124.18589486 70.78909345 132.43606049 74.64453125 140.6796875 C77.35755325 137.36507792 79.09619181 133.88351345 80.91015625 130.01171875 C81.37490608 129.02369011 81.37490608 129.02369011 81.8490448 128.01570129 C82.8689818 125.84339813 83.8819061 123.66790761 84.89453125 121.4921875 C85.61316868 119.9567777 86.33200322 118.42146014 87.05102539 116.88623047 C92.11344185 106.05660289 97.06962339 95.18018471 101.99404907 84.28729248 C107.09183778 73.01717536 112.30245392 61.80326547 117.58203125 50.6171875 C117.92934296 49.87986389 118.27665466 49.14254028 118.63449097 48.38287354 C120.94967862 43.47137667 123.28599899 38.57051675 125.64453125 33.6796875 C126.16487946 32.5980986 126.16487946 32.5980986 126.69573975 31.49465942 C127.73975721 29.33361817 128.79392979 27.17784318 129.8515625 25.0234375 C130.16222153 24.37950546 130.47288055 23.73557343 130.79295349 23.0721283 C138.35517648 7.80876159 152.03070455 -2.97417228 167.64453125 -9.3203125 C187.10558558 -15.87031137 206.92977168 -16.3574021 225.84375 -7.7578125 C256.83726366 8.14959758 267.21114392 38.74468572 280.69897461 68.62792969 C285.62069025 79.51666572 290.69904446 90.32662509 295.83203125 101.1171875 C302.38691698 114.89908307 308.85206953 128.71601307 315.22021484 142.58544922 C317.72164929 148.01965905 320.2469006 153.44279353 322.76953125 158.8671875 C327.67170976 169.41307564 332.54925554 179.97014386 337.41854858 190.53125 C344.35673021 205.57923328 351.33078074 220.60966488 358.34765625 235.62109375 C363.26467443 246.14159694 368.14875553 256.67739201 373.03564453 267.21191406 C375.73733241 273.03509686 378.44103881 278.85734233 381.14453125 284.6796875 C382.22787415 287.01301639 383.31120748 289.34634973 384.39453125 291.6796875 C384.93078125 292.8346875 385.46703125 293.9896875 386.01953125 295.1796875 C404.97786458 336.01302083 423.93619792 376.84635417 442.89453125 417.6796875 C443.43094238 418.8349292 443.96735352 419.9901709 444.52001953 421.18041992 C445.60205053 423.51116087 446.68375687 425.84205257 447.76513672 428.1730957 C450.49073826 434.04737845 453.22213026 439.91884157 455.96484375 445.78515625 C459.21379831 452.73975533 462.43790591 459.70547632 465.64453125 466.6796875 C466.16917969 467.81728516 466.69382812 468.95488281 467.234375 470.12695312 C468.76026476 473.45080526 470.2677044 476.78240446 471.76953125 480.1171875 C472.21893066 481.09260498 472.66833008 482.06802246 473.13134766 483.07299805 C477.70985376 493.34957196 480.2209432 503.72063097 480.08203125 514.9921875 C480.07373291 515.88881104 480.06543457 516.78543457 480.05688477 517.70922852 C479.60009396 535.97923519 472.89844267 552.0805363 460.64453125 565.6796875 C460.09152344 566.31390625 459.53851562 566.948125 458.96875 567.6015625 C446.55922174 580.98845218 427.01083026 588.44507113 408.96801758 589.15478516 C389.16259436 589.37292069 371.4467075 583.03269964 356.64453125 569.6796875 C355.9484375 569.07640625 355.25234375 568.473125 354.53515625 567.8515625 C344.12283722 558.24639999 338.43451971 544.56956998 332.58203125 531.9296875 C331.83830917 530.33879614 331.09407685 528.74814323 330.34936523 527.15771484 C325.24825087 516.239295 320.25476034 505.27225656 315.29684448 494.28820801 C310.21038928 483.02186983 304.96026827 471.83950336 299.64453125 460.6796875 C294.01141711 448.85357264 288.46862397 436.99516947 283.08203125 425.0546875 C277.82168955 413.39493773 272.43673729 401.80049784 266.95703125 390.2421875 C266.5960434 389.48073425 266.23505554 388.71928101 265.86312866 387.93475342 C265.50506134 387.1794635 265.14699402 386.42417358 264.77807617 385.64599609 C259.14040983 373.75189808 253.60431283 361.81416605 248.10693359 349.85449219 C245.48634767 344.16532702 242.84631666 338.48519589 240.20703125 332.8046875 C239.6665918 331.64130859 239.12615234 330.47792969 238.56933594 329.27929688 C237.47485748 326.92346295 236.38029346 324.56766878 235.28564453 322.21191406 C232.02947644 315.20354751 228.77597447 308.19394286 225.52197266 301.18457031 C222.80198714 295.32576242 220.08135728 289.4672555 217.359375 283.609375 C216.26692391 281.25781398 215.17447597 278.90625149 214.08203125 276.5546875 C213.28684082 274.84381958 213.28684082 274.84381958 212.47558594 273.09838867 C209.70331952 267.12972782 206.94140159 261.15651819 204.1953125 255.17578125 C203.6355155 253.95783703 203.07570133 252.7399007 202.51586914 251.52197266 C201.45452427 249.2113381 200.39504324 246.8998463 199.33764648 244.58740234 C198.86657471 243.56211426 198.39550293 242.53682617 197.91015625 241.48046875 C197.49540039 240.57466064 197.08064453 239.66885254 196.65332031 238.7355957 C195.81059014 236.73797305 195.81059014 236.73797305 194.64453125 235.6796875 C194.14228027 236.76459473 193.6400293 237.84950195 193.12255859 238.96728516 C184.57725461 257.42422413 176.03061393 275.88040444 167.4213562 294.30761719 C161.67851387 306.59970031 155.9628413 318.90427909 150.25341797 331.21191406 C147.55173009 337.03509686 144.84802369 342.85734233 142.14453125 348.6796875 C141.06118835 351.01301639 139.97785502 353.34634973 138.89453125 355.6796875 C106.39453125 425.67968751 106.39453125 425.67968751 104.77075195 429.17700195 C103.68329227 431.51926049 102.59589027 433.86154581 101.50854492 436.20385742 C98.86380815 441.90085205 96.21819813 447.59743692 93.5703125 453.29296875 C88.03911261 465.1935614 82.52417101 477.10139663 77.02929688 489.01879883 C73.59835731 496.45981607 70.16268272 503.89864501 66.72631836 511.3371582 C65.6794798 513.60400902 64.63358009 515.8712908 63.58789062 518.13867188 C62.00712536 521.56525897 60.42206766 524.98982894 58.83370972 528.41290283 C57.99394558 530.22503006 57.15813599 532.03898829 56.32250977 533.85302734 C48.61819788 550.42529191 40.88142505 564.93815056 25.64453125 575.6796875 C24.87625 576.22367188 24.10796875 576.76765625 23.31640625 577.328125 C7.0793624 587.91983903 -13.87041502 590.25759093 -32.7421875 587.06640625 C-52.20390959 582.37160188 -69.02794184 570.32969458 -79.484375 553.2734375 C-89.62687197 535.94020883 -92.5512194 515.67661078 -87.91796875 496.0546875 C-85.28622519 487.66771235 -81.57677545 479.73692517 -77.82861328 471.79980469 C-75.79636997 467.49551739 -73.78681005 463.18074916 -71.77575684 458.86653137 C-70.20578045 455.49944429 -68.63322271 452.13363704 -67.05322266 448.77124023 C-66.75738785 448.14055634 -66.46155304 447.50987244 -66.15675354 446.8600769 C-65.34702744 445.13423795 -64.53598387 443.4090173 -63.72485352 441.68383789 C-62.52416817 439.04977956 -61.43057314 436.36744849 -60.35546875 433.6796875 C-86.09546875 433.6796875 -111.83546875 433.6796875 -138.35546875 433.6796875 C-139.84046875 438.1346875 -139.84046875 438.1346875 -141.35546875 442.6796875 C-142.47712609 445.24441662 -143.61939864 447.75849283 -144.83984375 450.2734375 C-145.17187302 450.96944061 -145.50390228 451.66544373 -145.84599304 452.38253784 C-146.55777964 453.87394636 -147.27175765 455.36431071 -147.98776245 456.85369873 C-149.92054907 460.87590025 -151.83532206 464.90665404 -153.75 468.9375 C-154.14030899 469.7586026 -154.53061798 470.5797052 -154.93275452 471.4256897 C-158.33587272 478.60185821 -161.63281782 485.82308512 -164.89562988 493.06390381 C-170.39511077 505.26473145 -175.9793173 517.42499052 -181.67312622 529.53643799 C-182.44924016 531.18946874 -183.22282366 532.8436904 -183.99362183 534.49920654 C-194.45896625 556.95648121 -206.23173939 573.85846072 -229.98046875 583.5546875 C-249.68175754 590.52880284 -270.92024387 589.34577482 -289.79296875 580.4296875 C-295.91047423 577.14643915 -301.20012997 573.313909 -306.35546875 568.6796875 C-307.27199219 567.90238281 -307.27199219 567.90238281 -308.20703125 567.109375 C-320.54050138 555.90224917 -328.1301025 538.57888047 -329.5769043 522.16796875 C-329.69346447 519.62700677 -329.72659145 517.09819644 -329.73046875 514.5546875 C-329.75496094 513.73226562 -329.77945312 512.90984375 -329.8046875 512.0625 C-329.87194073 497.26679016 -324.26209909 484.31059093 -317.85546875 471.3046875 C-317.1309704 469.80443938 -316.40817973 468.30336552 -315.68701172 466.80151367 C-314.24699817 463.80461293 -312.80114819 460.81065569 -311.35058594 457.81884766 C-308.6544551 452.24340495 -306.06057405 446.62208853 -303.48046875 440.9921875 C-302.52228436 438.9100877 -301.56394522 436.82805911 -300.60546875 434.74609375 C-299.84363281 433.08924561 -299.84363281 433.08924561 -299.06640625 431.39892578 C-295.54392737 423.73967316 -292.01207531 416.08473452 -288.48046875 408.4296875 C-288.09398163 407.59187744 -287.70749451 406.75406738 -287.30929565 405.89086914 C-281.1261418 392.48981177 -274.90206853 379.10839339 -268.65234375 365.73828125 C-263.73532557 355.21777806 -258.85124447 344.68198299 -253.96435547 334.14746094 C-251.26266759 328.32427814 -248.55896119 322.50203267 -245.85546875 316.6796875 C-244.77212585 314.34635861 -243.68879252 312.01302527 -242.60546875 309.6796875 C-184.10546875 183.6796875 -184.10546875 183.6796875 -182.48168945 180.18237305 C-181.39422977 177.84011451 -180.30682777 175.49782919 -179.21948242 173.15551758 C-176.57474565 167.45852295 -173.92913563 161.76193808 -171.28125 156.06640625 C-165.3616415 143.33013728 -159.4633581 130.58431889 -153.5824585 117.83013916 C-147.20176596 103.99220662 -140.79914899 90.16512691 -134.34545898 76.36108398 C-130.94125767 69.0794204 -127.54716747 61.79323066 -124.16625977 54.50073242 C-123.0585357 52.11170747 -121.94787053 49.7241212 -120.83569336 47.3371582 C-118.55019566 42.43069308 -116.27428066 37.52314739 -114.08203125 32.57421875 C-105.09628541 12.44935109 -91.57854115 -1.43674364 -71.23828125 -10.21875 C-47.39698603 -19.32883842 -20.53770729 -14.70570979 0 0 Z M-45.35546875 233.6796875 C-55.68304372 255.39676458 -65.84828901 277.17645716 -75.72802734 299.10107422 C-76.84293021 301.55265631 -77.96742275 303.99644662 -79.11181641 306.43408203 C-79.66272949 307.6095459 -80.21364258 308.78500977 -80.78125 309.99609375 C-81.27665283 311.0435376 -81.77205566 312.09098145 -82.2824707 313.17016602 C-83.48651603 315.53129848 -83.48651603 315.53129848 -83.35546875 317.6796875 C-57.94546875 317.3496875 -32.53546875 317.0196875 -6.35546875 316.6796875 C-10.7949271 306.53235413 -15.27048208 296.44741976 -19.98046875 286.4296875 C-20.88991339 284.48886481 -21.79857744 282.54767776 -22.70724487 280.60649109 C-23.32658263 279.28355822 -23.94615029 277.96073296 -24.56594849 276.63801575 C-27.6026375 270.15689305 -30.62427149 263.66881654 -33.63934326 257.1776123 C-34.45630533 255.41919645 -35.27427986 253.6612511 -36.09228516 251.90332031 C-38.90278546 245.85285 -41.67377527 239.78842463 -44.35546875 233.6796875 C-44.68546875 233.6796875 -45.01546875 233.6796875 -45.35546875 233.6796875 Z " fill="#0E5260" transform="translate(345.35546875,133.3203125)"/>
<path d="M0 0 C15.80759737 10.36392145 23.68424674 25.37742576 31.3125 42.0625 C32.00319805 43.55261233 32.69470445 45.04235021 33.38696289 46.53173828 C38.65420948 57.89113692 43.81490549 69.30009893 48.97119141 80.71020508 C53.9489151 91.7096239 59.09244573 102.62630833 64.27124023 113.53222656 C69.32693113 124.18418978 74.27668193 134.87715038 79.125 145.625 C85.31813631 159.35160461 91.72822532 172.9682252 98.19580078 186.56738281 C103.96788545 198.70684326 109.63222966 210.89161415 115.24121094 223.10742188 C117.85488415 228.78655786 120.49056703 234.45547175 123.125 240.125 C123.93578003 241.87031006 123.93578003 241.87031006 124.76293945 243.65087891 C125.85733178 246.00655228 126.95181444 248.36218368 128.04638672 250.71777344 C130.76134193 256.56126824 133.47432698 262.40567756 136.1875 268.25 C137.27082377 270.58333777 138.3541571 272.91667111 139.4375 275.25 C145.9375 289.25 152.4375 303.25 158.9375 317.25 C159.47334717 318.40411377 160.00919434 319.55822754 160.5612793 320.74731445 C161.64873898 323.08957299 162.73614098 325.43185831 163.82348633 327.77416992 C166.4682231 333.47116455 169.11383312 339.16774942 171.76171875 344.86328125 C177.68132725 357.59955022 183.57961065 370.34536861 189.46051025 383.09954834 C195.28170696 395.72409134 201.11484204 408.34263076 207 420.9375 C207.56877149 422.15518962 208.1375378 423.37288166 208.70629883 424.59057617 C210.92125115 429.33166182 213.13668603 434.07252016 215.35400391 438.8125 C219.15694225 446.9468413 222.93866616 455.09057276 226.6875 463.25 C226.96587708 463.85553711 227.24425415 464.46107422 227.53106689 465.08496094 C229.4952224 469.36193862 231.43899841 473.64770333 233.375 477.9375 C233.88047363 479.04182373 234.38594727 480.14614746 234.90673828 481.28393555 C242.35367434 497.91320285 243.11471077 515.06006349 236.6875 532.25 C229.7515542 548.20626909 218.52120129 559.40246645 202.51953125 566.18359375 C187.10988777 571.98612157 170.19024937 572.43530951 154.96875 565.65625 C133.37184417 555.3087638 124.36396294 537.42105065 114.875 516.5 C114.0501247 514.69840424 113.22434055 512.89722436 112.39770508 511.09643555 C110.68219189 507.35739193 108.9705688 503.616605 107.26171875 499.87451172 C103.5644574 491.78605386 99.82037689 483.71933135 96.07662964 475.65231323 C94.87581905 473.06426527 93.67614426 470.47569374 92.47680664 467.88696289 C87.20831167 456.51655832 81.9187046 445.15616002 76.61425781 433.80249023 C71.15520043 422.11674555 65.72408781 410.41810811 60.29638672 398.71777344 C57.59469884 392.89459064 54.89099244 387.07234517 52.1875 381.25 C51.1041571 378.91667111 50.02082377 376.58333777 48.9375 374.25 C48.40125 373.095 47.865 371.94 47.3125 370.75 C45.6875 367.25 44.0625 363.75 42.4375 360.25 C41.90165283 359.09588623 41.36580566 357.94177246 40.8137207 356.75268555 C39.72626102 354.41042701 38.63885902 352.06814169 37.55151367 349.72583008 C34.9067769 344.02883545 32.26116688 338.33225058 29.61328125 332.63671875 C23.69367275 319.90044978 17.79538935 307.15463139 11.91448975 294.40045166 C4.97560849 279.35196433 -1.99843116 264.32070364 -9.015625 249.30859375 C-13.93264318 238.78809056 -18.81672428 228.25229549 -23.70361328 217.71777344 C-25.86285033 213.06378208 -28.02341209 208.41040634 -30.18408203 203.75708008 C-31.272394 201.41321181 -32.36060967 199.06929882 -33.44873047 196.7253418 C-36.09336739 191.02850135 -38.7389098 185.33208565 -41.38671875 179.63671875 C-46.13943134 169.41095822 -50.88567344 159.18240095 -55.60546875 148.94140625 C-55.97817902 148.13278137 -56.35088928 147.32415649 -56.7348938 146.49102783 C-59.93519327 139.54756752 -59.93519327 139.54756752 -61.34155273 136.49542236 C-65.38577818 127.72058392 -69.44112822 118.95145156 -73.55078125 110.20703125 C-73.88762939 109.49016144 -74.22447754 108.77329163 -74.5715332 108.03469849 C-76.13695837 104.70530712 -77.70549461 101.37742827 -79.27880859 98.05175781 C-82.31675968 91.60624551 -85.28146407 85.13647176 -88.1484375 78.61328125 C-88.59179695 77.60788048 -88.59179695 77.60788048 -89.04411316 76.58216858 C-95.64818135 61.44420551 -94.9942303 44.64908213 -89.3125 29.25 C-85.78430768 20.94963267 -80.64398452 14.60327964 -74.3125 8.25 C-73.69761719 7.61191406 -73.08273437 6.97382813 -72.44921875 6.31640625 C-53.14821407 -12.24066249 -22.4550776 -12.36756582 0 0 Z " fill="#93FBFE" transform="translate(572.3125,139.75)"/>
<path d="M0 0 C0.66 0 1.32 0 2 0 C2.20625 1.155 2.4125 2.31 2.625 3.5 C5.54582349 16.47570489 11.52449117 28.65022977 17.28640747 40.55767822 C19.29717112 44.71482371 21.28461028 48.88310782 23.2734375 53.05078125 C23.67556961 53.89243835 24.07770172 54.73409546 24.49201965 55.60125732 C28.28693715 63.56242062 31.94049374 71.58404548 35.5625 79.625 C41.92322327 93.73009287 48.48713634 107.73369249 55.12452698 121.71054077 C55.78507639 123.10349035 56.44399478 124.49721469 57.10118103 125.89175415 C58.73132394 129.34840857 60.3861562 132.78888484 62.08984375 136.20996094 C62.58750244 137.22737869 62.58750244 137.22737869 63.09521484 138.26535034 C63.72114073 139.5445528 64.35754541 140.81870325 65.00634766 142.0864563 C66.2538225 144.66245023 67.01892016 146.60142303 66.88208008 149.48413086 C65.73211838 152.76405207 64.33321339 155.88593705 62.82421875 159.01171875 C62.34264816 160.02687813 62.34264816 160.02687813 61.85134888 161.06254578 C61.16109877 162.51613459 60.46834993 163.96853899 59.77334595 165.41986084 C58.30162687 168.49334269 56.84203309 171.57252813 55.38182068 174.65148926 C54.64183585 176.21159109 53.90124358 177.77140496 53.16004944 179.33093262 C49.99649402 185.99064078 46.89128457 192.67562771 43.8125 199.375 C42.84904155 201.46878829 41.88549984 203.56253828 40.921875 205.65625 C40.44556641 206.69136719 39.96925781 207.72648438 39.47851562 208.79296875 C36.85104864 214.49217719 34.20663656 220.18351083 31.5625 225.875 C31.02214111 227.03821777 30.48178223 228.20143555 29.92504883 229.39990234 C28.83048424 231.75589682 27.73583886 234.11185376 26.64111328 236.46777344 C23.92615807 242.31126824 21.21317302 248.15567756 18.5 254 C17.41667623 256.33333777 16.3333429 258.66667111 15.25 261 C14.71375 262.155 14.1775 263.31 13.625 264.5 C-17.25 331.00000001 -17.25 331.00000001 -18.8737793 334.49731445 C-19.96123898 336.83957299 -21.04864098 339.18185831 -22.13598633 341.52416992 C-24.7807231 347.22116455 -27.42633312 352.91774942 -30.07421875 358.61328125 C-35.99382725 371.34955022 -41.89211065 384.09536861 -47.77301025 396.84954834 C-54.1517133 410.68316625 -60.53615349 424.51380637 -67.01000977 438.30322266 C-69.57854552 443.77901864 -72.12883044 449.26052054 -74.60179138 454.78010559 C-75.74544524 457.33113921 -76.89911898 459.87759173 -78.05307007 462.42398071 C-78.84171755 464.17605891 -79.61517439 465.9349508 -80.38793945 467.6940918 C-88.78675384 486.19809794 -102.4136095 497.05282411 -121.05078125 504.1640625 C-137.20307615 508.74232887 -152.84701422 506.22922116 -167.625 498.875 C-183.73185227 489.73222154 -193.34555097 475.53526323 -198.3125 457.875 C-199.16999772 453.34840148 -199.24149971 448.78202864 -199.3125 444.1875 C-199.33920776 443.103479 -199.33920776 443.103479 -199.36645508 441.99755859 C-199.34937019 430.13012927 -194.90514789 419.92509109 -189.79522705 409.45471191 C-187.96863129 405.71107056 -186.17917135 401.94962294 -184.3828125 398.19140625 C-183.82930618 397.0375795 -183.82930618 397.0375795 -183.26461792 395.86044312 C-179.91798746 388.87116416 -176.70835047 381.82410086 -173.52859497 374.75769043 C-167.02777378 360.31356789 -160.29474615 345.98711609 -153.49194336 331.68310547 C-147.71215471 319.52749834 -142.04068142 307.32634232 -136.42431641 295.09423828 C-133.92288196 289.66002845 -131.39763065 284.23689397 -128.875 278.8125 C-123.97282149 268.26661186 -119.09527571 257.70954364 -114.22598267 247.1484375 C-107.28780104 232.10045422 -100.31375051 217.07002262 -93.296875 202.05859375 C-88.37985682 191.53809056 -83.49577572 181.00229549 -78.60888672 170.46777344 C-75.90719884 164.64459064 -73.20349244 158.82234517 -70.5 153 C-69.4166571 150.66667111 -68.33332377 148.33333777 -67.25 146 C-34.75 76 -34.75 76 -33.12475586 72.49975586 C-32.04194937 70.16736953 -30.95942963 67.83485005 -29.87719727 65.50219727 C-27.16314396 59.65324708 -24.44408146 53.8067256 -21.71484375 47.96484375 C-14.29058161 32.05555306 -7.07188001 16.06842221 0 0 Z " fill="#93FBFE" transform="translate(227,203)"/>
<path d="M0 0 C0.66 0 1.32 0 2 0 C2.226875 1.216875 2.45375 2.43375 2.6875 3.6875 C5.15513097 14.68364732 10.22027956 24.92309433 15.04238892 35.05105591 C16.034114 37.13415582 17.02006846 39.21990601 18.00463867 41.30639648 C19.02375806 43.46597975 20.04316715 45.62541942 21.06425476 47.78407288 C24.17634439 54.36329873 27.25113218 60.95952111 30.3125 67.5625 C30.82675537 68.67101318 31.34101074 69.77952637 31.87084961 70.92163086 C35.04997818 77.77967837 38.22116052 84.64138791 41.390625 91.50390625 C41.77246948 92.33021042 42.15431396 93.15651459 42.54772949 94.00785828 C44.49503369 98.22337675 46.43767635 102.44093456 48.37109375 106.6628418 C51.79944173 114.13957473 55.25937348 121.58788982 58.921875 128.953125 C59.5005835 130.13696777 60.07929199 131.32081055 60.67553711 132.54052734 C61.73000174 134.68845843 62.80732864 136.82539115 63.91235352 138.94775391 C66.08164112 143.41144365 67.62152787 146.61870896 66.12109375 151.5078125 C65.45622216 153.02439855 64.74609814 154.52168169 64 156 C63.43116089 157.24305908 63.43116089 157.24305908 62.85083008 158.51123047 C61.5275919 161.36380411 60.14368908 164.18120766 58.75 167 C53.96048102 176.82697466 49.36552724 186.7216027 44.875 196.6875 C39.38565675 208.85787172 33.74236919 220.94704683 28 233 C22.36662512 244.82598726 16.82409005 256.68452395 11.4375 268.625 C6.1771583 280.28474977 0.79220604 291.87918966 -4.6875 303.4375 C-5.04848785 304.19895325 -5.40947571 304.96040649 -5.78140259 305.74493408 C-6.13946991 306.500224 -6.49753723 307.25551392 -6.86645508 308.03369141 C-12.50412142 319.92778942 -18.04021842 331.86552145 -23.53759766 343.82519531 C-26.15818358 349.51436048 -28.79821459 355.19449161 -31.4375 360.875 C-32.24815918 362.62006836 -32.24815918 362.62006836 -33.07519531 364.40039062 C-34.16967377 366.75622455 -35.26423779 369.11201872 -36.35888672 371.46777344 C-39.6194734 378.48565028 -42.87745098 385.50473882 -46.13574219 392.52368164 C-48.7805788 398.22083045 -51.42625644 403.91758448 -54.07421875 409.61328125 C-54.5851709 410.71285156 -55.09612305 411.81242187 -55.62255859 412.9453125 C-56.66780848 415.19431195 -57.71370943 417.44300893 -58.76025391 419.69140625 C-61.65461023 425.91768816 -64.53038638 432.15184763 -67.38111877 438.39823914 C-68.98001868 441.9006215 -70.5834475 445.40092386 -72.18692017 448.9012146 C-72.96782102 450.60934369 -73.74651387 452.31848425 -74.52279663 454.02871704 C-84.65258204 476.34200608 -94.82526668 493.47666011 -118.5 502.9375 C-131.89762894 507.00463736 -149.31646545 507.14089682 -162 501 C-162.92683594 500.57589844 -163.85367188 500.15179687 -164.80859375 499.71484375 C-171.87498518 496.19634927 -177.43008614 491.55023218 -183 486 C-183.56460937 485.45859375 -184.12921875 484.9171875 -184.7109375 484.359375 C-195.2393129 473.32964839 -199.17291725 457.84865852 -199.4375 443.0625 C-199.45997803 442.26440918 -199.48245605 441.46631836 -199.50561523 440.64404297 C-199.4518705 426.97634382 -192.8225811 414.82208937 -187 402.8125 C-186.23232571 401.21145141 -185.46573786 399.60988148 -184.70019531 398.0078125 C-183.54844416 395.59752472 -182.39623597 393.18747721 -181.24078369 390.77896118 C-178.01275746 384.04834882 -174.86331617 377.28453435 -171.75 370.5 C-170.79566102 368.42443865 -169.84123422 366.34891769 -168.88671875 364.2734375 C-168.41669434 363.25088867 -167.94666992 362.22833984 -167.46240234 361.17480469 C-164.84181642 355.48563952 -162.20178541 349.80550839 -159.5625 344.125 C-159.02206055 342.96162109 -158.48162109 341.79824219 -157.92480469 340.59960938 C-156.83032623 338.24377545 -155.73576221 335.88798128 -154.64111328 333.53222656 C-151.92615807 327.68873176 -149.21317302 321.84432244 -146.5 316 C-145.41667623 313.66666223 -144.3333429 311.33332889 -143.25 309 C-142.71375 307.845 -142.1775 306.69 -141.625 305.5 C-71.75 155 -71.75 155 -70.1262207 151.50268555 C-69.03876102 149.16042701 -67.95135902 146.81814169 -66.86401367 144.47583008 C-64.2192769 138.77883545 -61.57366688 133.08225058 -58.92578125 127.38671875 C-53.00617275 114.65044978 -47.10788935 101.90463139 -41.22698975 89.15045166 C-34.29956617 74.12681282 -27.33694033 59.12046548 -20.33203125 44.1328125 C-17.12268857 37.26582595 -13.92146331 30.39510111 -10.72720337 23.52108765 C-9.90551034 21.75314558 -9.08301954 19.98557436 -8.26049805 18.21801758 C-5.45099 12.1693758 -2.68085906 6.10683636 0 0 Z " fill="#93FBFE" transform="translate(467,204)"/>
<path d="M0 0 C16.54017707 -0.82833174 30.93284496 4.80377259 43.44921875 15.59375 C50.17456331 21.93089214 54.92338848 28.28781001 59 36.59375 C59.34715561 37.29500504 59.69431122 37.99626007 60.05198669 38.71876526 C63.73015473 46.17741586 67.29285143 53.68974114 70.82421875 61.21875 C71.3342041 62.30349609 71.3342041 62.30349609 71.85449219 63.41015625 C77.2236838 74.8339682 82.47968506 86.30626638 87.67797852 97.8086853 C93.57540749 110.85335421 99.6425407 123.81460161 105.76730347 136.75390625 C106.38403332 138.05908482 106.99908534 139.36505772 107.61233521 140.671875 C109.07550757 143.7889312 110.55897351 146.89186176 112.09326172 149.97460938 C112.65287598 151.12251953 113.21249023 152.27042969 113.7890625 153.453125 C114.29042725 154.45956055 114.79179199 155.46599609 115.30834961 156.50292969 C117.10449661 161.73728383 114.82831371 165.556229 112.55859375 170.34765625 C111.99712646 171.54084473 111.43565918 172.7340332 110.85717773 173.96337891 C110.24204886 175.25684741 109.62689521 176.55030413 109.01171875 177.84375 C108.37576657 179.19160364 107.74044068 180.53975294 107.10571289 181.88818359 C105.79852673 184.66451256 104.48909263 187.43976413 103.17822266 190.21435547 C100.323001 196.26490633 97.51158032 202.33567519 94.69921875 208.40625 C93.62510076 210.72140092 92.55088191 213.03650504 91.4765625 215.3515625 C90.94659668 216.49399414 90.41663086 217.63642578 89.87060547 218.81347656 C87.16891759 224.63665936 84.46521119 230.45890483 81.76171875 236.28125 C80.67837585 238.61457889 79.59504252 240.94791223 78.51171875 243.28125 C63.88671875 274.78125 63.88671875 274.78125 49.26171875 306.28125 C46.72583649 303.15294208 45.04833977 299.96410914 43.36328125 296.3125 C42.80825928 295.11608887 42.2532373 293.91967773 41.68139648 292.68701172 C41.08310052 291.38512334 40.48487652 290.08320188 39.88671875 288.78125 C39.2609498 287.42833913 38.63472207 286.07564038 38.00805664 284.72314453 C36.71833052 281.93793808 35.43111861 279.15159133 34.14599609 276.36425781 C31.87222603 271.43410307 29.58334787 266.51103252 27.29443359 261.58789062 C25.68685639 258.12965597 24.08137784 254.6704546 22.4765625 251.2109375 C19.23984778 244.23364733 16.00094591 237.25737404 12.76171875 230.28125 C11.67837585 227.94792111 10.59504252 225.61458777 9.51171875 223.28125 C8.97546875 222.12625 8.43921875 220.97125 7.88671875 219.78125 C6.26171875 216.28125 4.63671875 212.78125 3.01171875 209.28125 C2.47587158 208.12713623 1.94002441 206.97302246 1.38793945 205.78393555 C0.30047977 203.44167701 -0.78692223 201.09939169 -1.87426758 198.75708008 C-4.51900435 193.06008545 -7.16461437 187.36350058 -9.8125 181.66796875 C-14.57629022 171.41848798 -19.33302549 161.16590248 -24.06640625 150.90234375 C-24.44189102 150.0882605 -24.81737579 149.27417725 -25.20423889 148.4354248 C-27.13330319 144.25255481 -29.06130713 140.06919964 -30.98803711 135.88525391 C-34.5583707 128.1369974 -38.14291964 120.39650946 -41.7890625 112.68359375 C-64.34377169 64.93811622 -64.34377169 64.93811622 -55.73828125 40.28125 C-48.18699791 23.18098932 -36.63159154 10.99421517 -19.4609375 3.69140625 C-12.94020083 1.22132657 -6.90706942 0.51965413 0 0 Z " fill="#93FBFE" transform="translate(297.73828125,130.71875)"/>
<path d="M0 0 C0.73511307 0.00359528 1.47022614 0.00719055 2.22761536 0.01089478 C2.99829346 0.01074875 3.76897156 0.01060272 4.56300354 0.01045227 C7.12237823 0.01115157 9.68168104 0.01894471 12.24104309 0.02676392 C14.01081299 0.02862804 15.7805834 0.03005197 17.550354 0.03105164 C22.2176505 0.03487728 26.88491607 0.04470796 31.55220032 0.05575562 C36.31110719 0.06596873 41.07001905 0.07054904 45.82893372 0.07559204 C55.17334837 0.08633019 64.51774004 0.10340717 73.86213684 0.12442017 C72.06176671 5.86460542 70.00329089 11.30774256 67.37776184 16.71817017 C66.87897018 17.7638063 66.87897018 17.7638063 66.37010193 18.83056641 C65.65782153 20.32307818 64.94334146 21.81454191 64.2268219 23.30502319 C62.30976468 27.29396758 60.40986525 31.29105525 58.51057434 35.28848267 C58.12253632 36.10463043 57.73449829 36.9207782 57.33470154 37.76165771 C52.74327677 47.44404529 48.33396258 57.20845734 43.9490509 66.98574829 C43.65863922 67.63049103 43.36822754 68.27523376 43.0690155 68.93951416 C42.29829298 70.65095794 41.53097466 72.36393369 40.76399231 74.07705688 C37.91125586 80.14800231 34.86195295 86.12478794 31.86213684 92.12442017 C5.79213684 92.12442017 -20.27786316 92.12442017 -47.13786316 92.12442017 C-45.16898907 86.2177979 -43.22634021 80.82558059 -40.54801941 75.28457642 C-40.03705971 74.21063881 -40.03705971 74.21063881 -39.51577759 73.11500549 C-38.78999036 71.59079164 -38.06191966 70.06766327 -37.33171082 68.54556274 C-35.79237403 65.33634118 -34.26476614 62.12158656 -32.73670959 58.90698242 C-31.96585351 57.28533309 -31.19447183 55.66393349 -30.42256165 54.04278564 C-27.11440086 47.09126581 -23.85915208 40.1166878 -20.63786316 33.12442017 C-19.92581726 31.57972046 -19.92581726 31.57972046 -19.1993866 30.0038147 C-15.6851986 22.35854727 -12.22339228 14.6899051 -8.81364441 6.99746704 C-5.70102808 0.01176563 -5.70102808 0.01176563 0 0 Z " fill="#93FBFE" transform="translate(260.1378631591797,462.8755798339844)"/>
</svg>
